<svg width="35" height="31" viewBox="0 0 35 31" fill="none" xmlns="http://www.w3.org/2000/svg">
<path d="M12.5 22.8773L10.9896 21.4746C5.62504 16.5119 2.08337 13.2389 2.08337 9.22201C2.08337 5.94898 4.60421 3.37732 7.81254 3.37732C9.62504 3.37732 11.3646 4.23808 12.5 5.5983C13.6355 4.23808 15.375 3.37732 17.1875 3.37732C20.3959 3.37732 22.9167 5.94898 22.9167 9.22201C22.9167 13.2389 19.375 16.5119 14.0105 21.4852L12.5 22.8773Z" stroke="black"/>
<rect x="15" y="0.127319" width="20" height="20" rx="10" fill="#5A5AC9"/>
<path d="M26.1495 9.89529C26.4935 9.95129 26.7895 10.0793 27.0375 10.2793C27.2855 10.4713 27.4775 10.7193 27.6135 11.0233C27.7495 11.3193 27.8175 11.6553 27.8175 12.0313C27.8175 12.5193 27.6975 12.9473 27.4575 13.3153C27.2255 13.6913 26.8935 13.9793 26.4615 14.1793C26.0295 14.3873 25.5255 14.4913 24.9495 14.4913C24.3415 14.4913 23.8055 14.3753 23.3415 14.1433C22.8855 13.9193 22.5295 13.5993 22.2735 13.1833L22.9815 12.4753C23.1655 12.7953 23.4135 13.0513 23.7255 13.2433C24.0455 13.4353 24.4535 13.5313 24.9495 13.5313C25.5015 13.5313 25.9335 13.4033 26.2455 13.1473C26.5655 12.8993 26.7255 12.5273 26.7255 12.0313C26.7255 11.5273 26.5535 11.1273 26.2095 10.8313C25.8735 10.5273 25.3815 10.3753 24.7335 10.3753H24.4215V9.48729H24.7575C25.3335 9.48729 25.7735 9.34729 26.0775 9.06729C26.3895 8.78729 26.5455 8.43929 26.5455 8.02329C26.5455 7.73529 26.4775 7.49929 26.3415 7.31529C26.2055 7.13129 26.0215 6.99529 25.7895 6.90729C25.5575 6.81129 25.2895 6.76329 24.9855 6.76329C24.5455 6.76329 24.1575 6.85929 23.8215 7.05129C23.4935 7.23529 23.2375 7.49529 23.0535 7.83129L22.4055 7.15929C22.5495 6.88729 22.7535 6.65129 23.0175 6.45129C23.2895 6.25129 23.6015 6.09529 23.9535 5.98329C24.3135 5.87129 24.6935 5.81529 25.0935 5.81529C25.5975 5.81529 26.0415 5.90329 26.4255 6.07929C26.8175 6.25529 27.1215 6.50329 27.3375 6.82329C27.5535 7.14329 27.6615 7.51929 27.6615 7.95129C27.6615 8.26329 27.6015 8.55929 27.4815 8.83929C27.3615 9.11129 27.1855 9.34329 26.9535 9.53529C26.7295 9.71929 26.4615 9.83929 26.1495 9.89529Z" fill="white"/>
</svg>
