<svg width="39" height="35" viewBox="0 0 39 35" fill="none" xmlns="http://www.w3.org/2000/svg">
<path d="M21 20.2772H17.7707C15.8164 20.2772 13.9845 18.9394 12.8611 16.6918L10.7973 12.5627C9.67384 10.3151 7.84196 8.97729 5.88762 8.97729L3 8.97729" stroke="black" stroke-linecap="round"/>
<path d="M21 8.97729L17.7707 8.97729C15.8164 8.97729 13.9845 10.4571 12.8611 12.9435L10.7973 17.5111C9.67384 19.9974 7.84196 21.4773 5.88762 21.4773L3 21.4773" stroke="black" stroke-linecap="round"/>
<path d="M19 5.22729L22 8.97729L19 12.7273" stroke="black" stroke-linecap="round"/>
<path d="M19 16.4773L22 20.2273L19 23.9773" stroke="black" stroke-linecap="round"/>
<rect x="19" y="2.72729" width="20" height="20" rx="10" fill="#5A5AC9"/>
<path d="M31.5109 14.3673V15.3273L27.2029 15.3273V14.3673L28.9069 14.3673L28.9069 9.68727C28.8349 9.78327 28.7229 9.88727 28.5709 9.99927C28.4189 10.1033 28.2469 10.2033 28.0549 10.2993C27.8629 10.3953 27.6709 10.4753 27.4789 10.5393C27.2869 10.5953 27.1109 10.6233 26.9509 10.6233V9.61527C27.1269 9.61527 27.3189 9.56727 27.5269 9.47127C27.7429 9.36727 27.9509 9.24727 28.1509 9.11127C28.3509 8.97527 28.5189 8.84727 28.6549 8.72727C28.7989 8.60727 28.8829 8.52327 28.9069 8.47527H29.9869L29.9869 14.3673H31.5109Z" fill="white"/>
</svg>
